<?xml version="1.0" standalone="no"?>
<!DOCTYPE svg PUBLIC "-//W3C//DTD SVG 20010904//EN"
 "http://www.w3.org/TR/2001/REC-SVG-20010904/DTD/svg10.dtd">
<svg version="1.0" xmlns="http://www.w3.org/2000/svg"
 width="512.000000pt" height="512.000000pt" viewBox="0 0 512.000000 512.000000"
 preserveAspectRatio="xMidYMid meet">

<g transform="translate(0.000000,512.000000) scale(0.100000,-0.100000)"
fill="#000000" stroke="none">
<path d="M2438 4740 c-158 -20 -340 -88 -475 -177 -72 -48 -192 -160 -248
-233 -146 -191 -218 -407 -218 -650 0 -303 113 -565 334 -775 306 -290 768
-372 1150 -204 357 156 594 481 640 874 27 234 -39 492 -179 704 -50 76 -171
201 -252 261 -73 54 -214 128 -295 154 -134 42 -328 62 -457 46z"/>
<path d="M2378 2500 c-533 -45 -1021 -260 -1381 -609 -348 -338 -544 -756
-564 -1207 -8 -179 14 -235 111 -287 l41 -22 1975 0 1975 0 45 25 c24 14 58
45 75 68 l30 44 -1 146 c-3 683 -480 1344 -1193 1656 -332 146 -753 216 -1113
186z"/>
</g>
</svg>
